<svg width="32" height="32" viewBox="0 0 32 32" fill="none" xmlns="http://www.w3.org/2000/svg">
<path d="M4.62401 3.19995H27.392C28.176 3.19995 28.8 3.82395 28.8 4.60795V27.392C28.8 28.16 28.176 28.8 27.392 28.8H20.864V18.88H24.192L24.688 15.024H20.864V12.56C20.864 11.44 21.184 10.672 22.784 10.672H24.832V7.21595C24.48 7.16795 23.264 7.07195 21.856 7.07195C18.896 7.07195 16.88 8.86395 16.88 12.176V15.024H13.536V18.88H16.88V28.8H4.62401C4.2491 28.8 3.8893 28.6521 3.62271 28.3885C3.35611 28.1249 3.20422 27.7668 3.20001 27.392V4.60795C3.20001 3.82395 3.84001 3.19995 4.62401 3.19995Z" fill="#192615"/>
</svg>
