<svg width="1440" height="323" viewBox="0 0 1440 323" fill="none" xmlns="http://www.w3.org/2000/svg">
<rect width="1440" height="323" transform="matrix(-1 0 0 1 1440 0)" fill="#FEFEF1"/>
<g clip-path="url(#clip0)">
<path d="M682.945 321.182C682.944 320.149 697.842 319.287 716.222 319.258C734.602 319.228 749.503 320.042 749.505 321.075C749.506 322.108 734.608 322.97 716.228 322.999C697.848 323.029 682.947 322.215 682.945 321.182Z" fill="#E6E6E6"/>
<path d="M720.428 254.18C740.11 254.18 759.183 247.355 774.398 234.869C789.612 222.383 800.027 205.008 803.867 185.704C807.706 166.4 804.734 146.362 795.456 129.004C786.178 111.646 771.168 98.0418 752.984 90.5098C734.801 82.9778 714.568 81.9838 695.733 87.6971C676.899 93.4105 660.628 105.478 649.693 121.843C638.758 138.208 633.836 157.858 635.765 177.445C637.694 197.033 646.355 215.345 660.273 229.262C668.154 237.187 677.529 243.469 687.855 247.746C698.18 252.023 709.252 254.21 720.428 254.18ZM720.428 84.7129C766.963 84.7129 804.822 122.572 804.822 169.107C804.822 215.642 766.963 253.501 720.428 253.501C673.893 253.501 636.034 215.642 636.034 169.107C636.034 122.572 673.893 84.7129 720.428 84.7129Z" fill="#E6E6E6"/>
<path d="M767.914 171.852H774.371V194.203H767.914V171.852Z" fill="#3F3D56"/>
<path d="M763.65 189.999L779.354 171.316L810.877 171.604L830 190.23L829.613 190.478H829.752V229.22H763.692V190.478L763.65 189.999Z" fill="#3F3D56"/>
<path d="M779.338 171.356L798.957 194.357V229.22H763.692V189.981L779.338 171.356Z" fill="#FF7A63"/>
<path d="M777.599 209.94H784.801V216.306H777.599V209.94Z" fill="#3F3D56"/>
<path d="M777.599 198.922H784.801V205.187H777.599V198.922Z" fill="#3F3D56"/>
<path d="M777.599 209.94H784.801V216.306H777.599V209.94Z" fill="white"/>
<path d="M777.599 198.922H784.801V205.187H777.599V198.922Z" fill="white"/>
<path d="M809.605 208.251H816.807V214.617H809.605V208.251Z" fill="#3F3D56"/>
<path d="M809.605 197.233H816.807V203.497H809.605V197.233Z" fill="#3F3D56"/>
<path d="M809.605 208.251H816.807V214.617H809.605V208.251Z" fill="white"/>
<path d="M809.605 197.233H816.807V203.497H809.605V197.233Z" fill="white"/>
<path d="M665.519 73.5365H671.976V95.8875H665.519V73.5365Z" fill="#3F3D56"/>
<path d="M676.197 92.1624V153.301H610.138V92.1624H610.276L609.89 91.914L629.012 73.2881L660.536 73L676.24 91.6829L676.197 92.1624Z" fill="#3F3D56"/>
<path d="M676.198 91.6657V153.301H640.933V96.0414L660.552 73.0398L676.198 91.6657Z" fill="#FF7A63"/>
<path d="M655.088 111.624H662.29V117.99H655.088V111.624Z" fill="#3F3D56"/>
<path d="M655.088 100.606H662.29V106.871H655.088V100.606Z" fill="#3F3D56"/>
<path d="M655.088 111.624H662.29V117.99H655.088V111.624Z" fill="white"/>
<path d="M655.088 100.606H662.29V106.871H655.088V100.606Z" fill="white"/>
<path d="M623.082 109.935H630.284V116.301H623.082V109.935Z" fill="#3F3D56"/>
<path d="M623.082 98.9169H630.284V105.182H623.082V98.9169Z" fill="#3F3D56"/>
<path d="M623.082 109.935H630.284V116.301H623.082V109.935Z" fill="white"/>
<path d="M623.082 98.9169H630.284V105.182H623.082V98.9169Z" fill="white"/>
<path d="M655.088 134.021H662.29V140.387H655.088V134.021Z" fill="white"/>
<path d="M655.088 123.003H662.29V129.268H655.088V123.003Z" fill="white"/>
<path d="M623.082 132.332H630.284V138.698H623.082V132.332Z" fill="white"/>
<path d="M623.082 121.314H630.284V127.579H623.082V121.314Z" fill="white"/>
<path d="M716.511 144.458C710.778 144.458 706.13 139.811 706.13 134.078C706.13 128.345 710.778 123.697 716.511 123.697C722.244 123.697 726.891 128.345 726.891 134.078C726.891 139.811 722.244 144.458 716.511 144.458Z" fill="#A0616A"/>
<path d="M727.172 152.875L709.497 152.594C711.017 148.405 711.676 144.483 710.619 141.091L724.086 139.689C722.266 144.084 723.295 148.479 727.172 152.875Z" fill="#A0616A"/>
<path d="M742.602 222.452L739.667 230.279C739.415 230.95 739.319 231.67 739.386 232.384C739.453 233.098 739.681 233.788 740.053 234.401C740.425 235.014 740.931 235.535 741.534 235.924C742.136 236.313 742.819 236.561 743.531 236.647C744.212 236.73 744.903 236.665 745.557 236.454C746.21 236.244 746.81 235.895 747.314 235.43C747.819 234.965 748.217 234.397 748.481 233.763C748.744 233.129 748.867 232.446 748.841 231.761L748.494 222.732L745.969 176.441L735.588 179.527L742.602 222.452Z" fill="#A0616A"/>
<path d="M731.66 309.423L723.244 308.581L715.669 235.076L705.008 309.984L697.152 309.703L695.188 227.502H732.783L731.66 309.423Z" fill="#2F2E41"/>
<path d="M704.166 130.15C704.166 130.15 706.972 136.322 708.936 136.603C710.9 136.883 714.266 139.969 713.705 141.372C713.144 142.775 713.425 146.983 719.036 146.422C724.647 145.861 724.366 145.3 724.366 145.3C724.366 145.3 733.344 128.186 724.086 123.697C714.827 119.208 706.691 122.575 704.166 130.15Z" fill="#2F2E41"/>
<path d="M696.723 305.688L697.06 312.769C697.06 312.769 691.921 320.785 698.328 320.785C698.392 320.785 698.265 320.786 698.328 320.785C702.961 320.771 707.149 322.856 706.601 318.255L705.828 311.758L704.479 304.677L696.723 305.688Z" fill="#2F2E41"/>
<path d="M731.59 305.688L731.253 312.769C731.253 312.769 736.393 320.785 729.986 320.785C729.922 320.785 730.049 320.786 729.986 320.785C725.352 320.771 721.165 322.856 721.712 318.255L722.486 311.758L723.835 304.677L731.59 305.688Z" fill="#2F2E41"/>
<path d="M735.869 230.868L694.066 228.904C701.863 203.887 701.92 183.416 692.103 164.566C692.103 162.594 692.68 160.665 693.764 159.018C694.848 157.371 696.391 156.077 698.202 155.297L710.338 150.069L725.769 150.911L735.951 156.511C737.944 157.607 739.589 159.243 740.697 161.231C741.805 163.218 742.33 165.478 742.214 167.75C733.3 189.029 732.791 210.012 735.869 230.868Z" fill="#E6E6E6"/>
<path d="M728.294 182.052L751.58 178.124L747.743 168.599C746.394 165.25 744.339 162.231 741.716 159.749C739.094 157.267 735.968 155.38 732.549 154.216L730.258 153.436L728.294 182.052Z" fill="#E6E6E6"/>
<path d="M655.251 160.638L648.083 157.652C647.358 157.349 646.707 156.893 646.176 156.313C645.646 155.734 645.248 155.045 645.011 154.296C644.773 153.547 644.702 152.756 644.802 151.976C644.902 151.197 645.171 150.449 645.59 149.784C646.041 149.069 646.654 148.469 647.379 148.034C648.104 147.598 648.921 147.339 649.764 147.277C650.607 147.215 651.454 147.352 652.234 147.676C653.015 148.001 653.709 148.504 654.26 149.146L659.579 155.342L680.428 170.302L694.6 164.419L696.289 176.175L678.582 180.786L655.251 160.638Z" fill="#A0616A"/>
<path d="M693.033 180.728L681.495 169.868L684.549 166.135C687.279 159.358 693.555 156.571 700.472 154.216L702.764 153.436L704.572 171.904L693.033 180.728Z" fill="#E6E6E6"/>
</g>
<g clip-path="url(#clip1)">
<path d="M218.753 199.676H219.381C219.381 191.853 222.488 184.351 228.02 178.819C233.551 173.288 241.054 170.18 248.877 170.18C256.699 170.18 264.202 173.288 269.733 178.819C275.265 184.351 278.372 191.853 278.372 199.676H279C279 191.687 275.826 184.025 270.177 178.375C264.528 172.726 256.866 169.552 248.877 169.552C240.887 169.552 233.225 172.726 227.576 178.375C221.927 184.025 218.753 191.687 218.753 199.676Z" fill="#3F3D56"/>
<path d="M0.358032 199.676H0.985607C0.985607 191.853 4.09322 184.351 9.62477 178.819C15.1563 173.288 22.6587 170.18 30.4815 170.18C38.3043 170.18 45.8067 173.288 51.3382 178.819C56.8698 184.351 59.9774 191.853 59.9774 199.676H60.605C60.605 191.687 57.4313 184.025 51.782 178.375C46.1328 172.726 38.4707 169.552 30.4815 169.552C22.4923 169.552 14.8302 172.726 9.181 178.375C3.53176 184.025 0.358032 191.687 0.358032 199.676Z" fill="#3F3D56"/>
<path d="M74.0978 127.819H74.7253C74.7253 98.0591 98.9368 73.8478 128.697 73.8478C158.456 73.8478 182.668 98.0591 182.668 127.819H183.295C183.295 97.7131 158.802 73.2202 128.697 73.2202C98.5905 73.2202 74.0978 97.7131 74.0978 127.819Z" fill="#3F3D56"/>
<path d="M233.344 74.7891C226.499 74.7891 220.95 69.2399 220.95 62.3945C220.95 55.5492 226.499 50 233.344 50C240.189 50 245.739 55.5492 245.739 62.3945C245.739 69.2399 240.189 74.7891 233.344 74.7891Z" fill="#FF6584"/>
<path d="M230.711 147.708L209.417 122.349H167.552L141.968 147.268L142.485 147.601H142.3V199.433H230.682V147.601L230.711 147.708Z" fill="#3F3D56"/>
<path d="M217.9 136.683H213.073V119.974H217.9V136.683Z" fill="#3F3D56"/>
<path d="M209.749 122.016L183.501 152.79V199.433H230.682V146.936L209.749 122.016Z" fill="#FF7A63"/>
<path d="M189.567 158.898H199.202V168.75H189.567V158.898Z" fill="#3F3D56"/>
<path d="M189.567 172.303H199.202V182.156H189.567V172.303Z" fill="#3F3D56"/>
<path d="M189.567 158.898H199.202V168.75H189.567V158.898Z" fill="white"/>
<path d="M189.567 172.303H199.202V182.156H189.567V172.303Z" fill="white"/>
<path d="M202.893 158.898H212.528V168.75H202.893V158.898Z" fill="#3F3D56"/>
<path d="M202.893 172.303H212.528V182.156H202.893V172.303Z" fill="#3F3D56"/>
<path d="M202.893 158.898H212.528V168.75H202.893V158.898Z" fill="white"/>
<path d="M202.893 172.303H212.528V182.156H202.893V172.303Z" fill="white"/>
<path d="M216.219 158.898H225.854V168.75H216.219V158.898Z" fill="#3F3D56"/>
<path d="M216.219 172.303H225.854V182.156H216.219V172.303Z" fill="#3F3D56"/>
<path d="M216.219 158.898H225.854V168.75H216.219V158.898Z" fill="white"/>
<path d="M216.219 172.303H225.854V182.156H216.219V172.303Z" fill="white"/>
<path d="M122.421 62.5514H126.814V73.5339H122.421V62.5514Z" fill="#FF7A63"/>
<path d="M122.735 72.5925H160.075V199.676H122.735V72.5925Z" fill="#FF7A63"/>
<path d="M107.673 72.5925H122.735V199.676H107.673V72.5925Z" fill="#3F3D56"/>
<path d="M147.681 83.5751H153.329V89.2232H147.681V83.5751Z" fill="white"/>
<path d="M138.581 83.5751H144.229V89.2232H138.581V83.5751Z" fill="white"/>
<path d="M129.481 83.5751H135.129V89.2232H129.481V83.5751Z" fill="white"/>
<path d="M147.524 96.4403H153.172V102.088H147.524V96.4403Z" fill="white"/>
<path d="M138.424 96.4403H144.072V102.088H138.424V96.4403Z" fill="white"/>
<path d="M129.324 96.4403H134.972V102.088H129.324V96.4403Z" fill="white"/>
<path d="M147.367 109.306H153.015V114.954H147.367V109.306Z" fill="white"/>
<path d="M138.267 109.306H143.915V114.954H138.267V109.306Z" fill="white"/>
<path d="M129.167 109.306H134.815V114.954H129.167V109.306Z" fill="white"/>
<path d="M147.21 122.171H152.858V127.819H147.21V122.171Z" fill="white"/>
<path d="M138.11 122.171H143.758V127.819H138.11V122.171Z" fill="white"/>
<path d="M129.01 122.171H134.658V127.819H129.01V122.171Z" fill="white"/>
<path d="M147.053 135.036H152.701V140.684H147.053V135.036Z" fill="white"/>
<path d="M137.953 135.036H143.601V140.684H137.953V135.036Z" fill="white"/>
<path d="M128.853 135.036H134.502V140.684H128.853V135.036Z" fill="white"/>
<path d="M146.896 147.901H152.544V153.549H146.896V147.901Z" fill="white"/>
<path d="M137.796 147.901H143.444V153.549H137.796V147.901Z" fill="white"/>
<path d="M128.697 147.901H134.345V153.549H128.697V147.901Z" fill="white"/>
<path d="M146.739 160.766H152.387V166.415H146.739V160.766Z" fill="white"/>
<path d="M137.639 160.766H143.288V166.415H137.639V160.766Z" fill="white"/>
<path d="M128.54 160.766H134.188V166.415H128.54V160.766Z" fill="white"/>
<path d="M146.582 173.632H152.23V179.28H146.582V173.632Z" fill="white"/>
<path d="M137.483 173.632H143.131V179.28H137.483V173.632Z" fill="white"/>
<path d="M137.483 188.693H143.131V199.362H137.483V188.693Z" fill="white"/>
<path d="M128.383 173.632H134.031V179.28H128.383V173.632Z" fill="white"/>
<path d="M120.224 62.5514H122.735V73.2201H120.224V62.5514Z" fill="#3F3D56"/>
<path d="M75.3529 118.405H79.7459V124.914H75.3529V118.405Z" fill="#FF7A63"/>
<path d="M75.6667 124.356H113.007V199.676H75.6667V124.356Z" fill="#FF7A63"/>
<path d="M60.605 124.356H75.6667V199.676H60.605V124.356Z" fill="#3F3D56"/>
<path d="M99.9851 135.036H105.633V140.684H99.9851V135.036Z" fill="white"/>
<path d="M90.8853 135.036H96.5335V140.684H90.8853V135.036Z" fill="white"/>
<path d="M81.7855 135.036H87.4337V140.684H81.7855V135.036Z" fill="white"/>
<path d="M99.8282 147.901H105.476V153.549H99.8282V147.901Z" fill="white"/>
<path d="M90.7284 147.901H96.3766V153.549H90.7284V147.901Z" fill="white"/>
<path d="M81.6286 147.901H87.2768V153.549H81.6286V147.901Z" fill="white"/>
<path d="M99.6713 160.766H105.319V166.415H99.6713V160.766Z" fill="white"/>
<path d="M90.5715 160.766H96.2197V166.415H90.5715V160.766Z" fill="white"/>
<path d="M81.4717 160.766H87.1199V166.415H81.4717V160.766Z" fill="white"/>
<path d="M99.5144 173.632H105.163V179.28H99.5144V173.632Z" fill="white"/>
<path d="M90.4146 173.632H96.0628V179.28H90.4146V173.632Z" fill="white"/>
<path d="M90.4146 188.693H96.0628V199.362H90.4146V188.693Z" fill="white"/>
<path d="M81.3148 173.632H86.963V179.28H81.3148V173.632Z" fill="white"/>
<path d="M73.1564 118.405H75.6667V124.728H73.1564V118.405Z" fill="#3F3D56"/>
<path d="M0.281494 199.297H278.923V200H0.281494V199.297Z" fill="#3F3D56"/>
<path d="M49.1017 184.953C44.5889 184.953 40.9305 181.295 40.9305 176.782C40.9305 172.269 44.5889 168.611 49.1017 168.611C53.6145 168.611 57.2728 172.269 57.2728 176.782C57.2728 181.295 53.6145 184.953 49.1017 184.953Z" fill="#FF7A63"/>
<path opacity="0.2" d="M43.0235 171.325C42.2613 173.107 42.1579 175.103 42.7318 176.955C43.3056 178.807 44.5194 180.395 46.1561 181.435C47.7928 182.474 49.7459 182.898 51.6663 182.63C53.5866 182.362 55.3492 181.42 56.639 179.973C56.1734 181.062 55.4766 182.037 54.5967 182.83C53.7169 183.623 52.6751 184.216 51.5436 184.567C50.4121 184.917 49.2179 185.018 48.0437 184.861C46.8695 184.704 45.7434 184.294 44.7434 183.659C43.7435 183.024 42.8936 182.179 42.2526 181.183C41.6116 180.186 41.1949 179.063 41.0313 177.889C40.8677 176.716 40.9611 175.521 41.3051 174.388C41.6491 173.254 42.2354 172.209 43.0235 171.325Z" fill="black"/>
<path d="M49.0793 176.782H49.0567L48.6529 199.949H49.5058L49.0793 176.782Z" fill="#3F3D56"/>
<path d="M47.5914 189.401L47.7797 189.043L49.1304 189.755L48.9421 190.112L47.5914 189.401Z" fill="#3F3D56"/>
<path d="M25.0786 177.146C18.2161 177.146 12.6529 171.582 12.6529 164.72C12.6529 157.857 18.2161 152.294 25.0786 152.294C31.9412 152.294 37.5043 157.857 37.5043 164.72C37.5043 171.582 31.9412 177.146 25.0786 177.146Z" fill="#FF7A63"/>
<path opacity="0.2" d="M15.8356 156.421C14.6765 159.132 14.5193 162.167 15.392 164.983C16.2646 167.8 18.1104 170.214 20.5993 171.795C23.0882 173.376 26.0582 174.02 28.9785 173.613C31.8988 173.206 34.5791 171.773 36.5405 169.572C35.8324 171.228 34.7728 172.711 33.4348 173.917C32.0969 175.123 30.5127 176.024 28.792 176.557C27.0713 177.09 25.2553 177.243 23.4697 177.005C21.6841 176.766 19.9717 176.143 18.4511 175.177C16.9305 174.211 15.6381 172.926 14.6633 171.411C13.6886 169.896 13.0549 168.188 12.8061 166.404C12.5573 164.619 12.6994 162.803 13.2225 161.079C13.7456 159.355 14.6372 157.766 15.8356 156.421Z" fill="black"/>
<path d="M25.0446 164.72H25.0104L24.396 199.949H25.6932L25.0446 164.72Z" fill="#3F3D56"/>
<path d="M22.782 183.909L23.0682 183.365L25.1223 184.447L24.836 184.99L22.782 183.909Z" fill="#3F3D56"/>
<path d="M270.635 184.64C266.122 184.64 262.463 180.981 262.463 176.469C262.463 171.956 266.122 168.297 270.635 168.297C275.147 168.297 278.806 171.956 278.806 176.469C278.806 180.981 275.147 184.64 270.635 184.64Z" fill="#FF7A63"/>
<path opacity="0.2" d="M264.556 171.011C263.794 172.794 263.691 174.789 264.265 176.642C264.839 178.494 266.052 180.081 267.689 181.121C269.326 182.161 271.279 182.584 273.199 182.316C275.12 182.049 276.882 181.107 278.172 179.659C277.706 180.748 277.009 181.723 276.13 182.516C275.25 183.31 274.208 183.902 273.076 184.253C271.945 184.603 270.751 184.704 269.577 184.547C268.402 184.39 267.276 183.98 266.276 183.345C265.276 182.71 264.426 181.865 263.785 180.869C263.144 179.873 262.728 178.749 262.564 177.576C262.401 176.402 262.494 175.208 262.838 174.074C263.182 172.94 263.768 171.895 264.556 171.011H264.556Z" fill="black"/>
<path d="M270.612 176.469H270.59L270.186 199.635H271.039L270.612 176.469Z" fill="#3F3D56"/>
<path d="M269.124 189.087L269.313 188.73L270.663 189.441L270.475 189.798L269.124 189.087Z" fill="#3F3D56"/>
<path d="M88.716 61.7155L85.8274 59.4052C88.0714 59.1576 88.9934 60.3814 89.3708 61.3501C91.1239 60.6221 93.0324 61.5762 93.0324 61.5762L87.2528 63.6744C87.5444 62.8956 88.052 62.2161 88.716 61.7155Z" fill="#3F3D56"/>
<path d="M233.685 73.3255L230.796 71.0151C233.041 70.7676 233.963 71.9914 234.34 72.9601C236.093 72.2321 238.002 73.1862 238.002 73.1862L232.222 75.2844C232.514 74.5056 233.021 73.8261 233.685 73.3255Z" fill="#3F3D56"/>
<path d="M44.786 85.2494L41.8973 82.9391C44.1414 82.6915 45.0634 83.9154 45.4408 84.8841C47.1939 84.1561 49.1024 85.1101 49.1024 85.1101L43.3228 87.2083C43.6144 86.4295 44.1219 85.75 44.786 85.2494Z" fill="#3F3D56"/>
<path d="M209.837 67.0498L206.949 64.7395C209.193 64.4919 210.115 65.7158 210.492 66.6845C212.245 65.9565 214.154 66.9105 214.154 66.9105L208.374 69.0087C208.666 68.2299 209.173 67.5504 209.837 67.0498Z" fill="#3F3D56"/>
<path d="M204.503 92.1526L201.614 89.8423C203.858 89.5947 204.78 90.8186 205.158 91.7873C206.911 91.0593 208.819 92.0133 208.819 92.0133L203.04 94.1115C203.331 93.3327 203.839 92.6532 204.503 92.1526Z" fill="#3F3D56"/>
<path d="M92.1676 105.332L89.279 103.021C91.5231 102.774 92.4451 103.998 92.8224 104.966C94.5756 104.238 96.4841 105.192 96.4841 105.192L90.7045 107.291C90.996 106.512 91.5036 105.832 92.1676 105.332Z" fill="#3F3D56"/>
<path d="M245.739 193.086H265.193V193.714H262.159V199.676H261.532V193.714H249.714V199.676H249.086V193.714H245.739V193.086Z" fill="#3F3D56"/>
<path d="M225.97 195.597C226.738 195.597 227.492 195.799 228.157 196.183C228.832 195.573 229.67 195.172 230.569 195.028C231.468 194.884 232.389 195.005 233.22 195.375C234.052 195.744 234.758 196.348 235.254 197.111C235.749 197.875 236.012 198.766 236.011 199.676H221.593C221.672 198.569 222.167 197.532 222.979 196.775C223.791 196.018 224.86 195.597 225.97 195.597Z" fill="#3F3D56"/>
<path d="M151.603 195.597C152.371 195.597 153.125 195.799 153.79 196.183C154.465 195.573 155.303 195.172 156.201 195.028C157.1 194.884 158.021 195.005 158.853 195.375C159.685 195.744 160.391 196.348 160.887 197.111C161.382 197.875 161.645 198.766 161.644 199.676H147.226C147.304 198.569 147.8 197.532 148.612 196.775C149.424 196.018 150.493 195.597 151.603 195.597Z" fill="#3F3D56"/>
<path d="M102.966 195.597C103.734 195.597 104.488 195.799 105.153 196.183C105.828 195.573 106.666 195.172 107.565 195.028C108.463 194.884 109.385 195.005 110.216 195.375C111.048 195.744 111.754 196.348 112.25 197.111C112.745 197.875 113.008 198.766 113.007 199.676H98.5889C98.6675 198.569 99.1627 197.532 99.9749 196.775C100.787 196.018 101.856 195.597 102.966 195.597Z" fill="#3F3D56"/>
<path d="M38.9537 195.597C39.7216 195.597 40.4759 195.799 41.1407 196.183C41.8158 195.573 42.6535 195.172 43.5523 195.028C44.4511 194.884 45.3722 195.005 46.2039 195.375C47.0356 195.744 47.742 196.348 48.2374 197.111C48.7329 197.875 48.996 198.766 48.9949 199.676H34.5766C34.6551 198.569 35.1504 197.532 35.9626 196.775C36.7747 196.018 37.8435 195.597 38.9537 195.597Z" fill="#3F3D56"/>
<path d="M8.20266 195.597C8.97054 195.597 9.72488 195.799 10.3896 196.183C11.0647 195.573 11.9025 195.172 12.8013 195.028C13.7 194.884 14.6212 195.005 15.4528 195.375C16.2845 195.744 16.9909 196.348 17.4863 197.111C17.9818 197.875 18.2449 198.766 18.2438 199.676H3.8255C3.9041 198.569 4.39935 197.532 5.21153 196.775C6.0237 196.018 7.09247 195.597 8.20266 195.597Z" fill="#3F3D56"/>
<path d="M238.522 177.711H243.542V182.732H241.215V199.648H240.587V182.732H238.522V177.711Z" fill="#3F3D56"/>
<path d="M245.7 191.209H265.155V191.836H245.7V191.209Z" fill="#3F3D56"/>
<path d="M245.7 189.64H265.155V190.268H245.7V189.64Z" fill="#3F3D56"/>
<path d="M245.7 188.071H265.155V188.699H245.7V188.071Z" fill="#3F3D56"/>
</g>
<path d="M1187.85 140.301H1194.51V163.346H1187.85V140.301Z" fill="#3F3D56"/>
<path d="M1183.31 159.967L1199.89 140.045H1232.15L1251.86 159.249L1251.47 159.505H1251.61V199.449H1183.5V159.505L1183.31 159.967Z" fill="#3F3D56"/>
<path d="M1195.79 132.754C1195.79 132.783 1195.8 132.812 1195.8 132.841C1195.43 133.961 1194.95 135.045 1194.38 136.079C1194.66 136.914 1194.8 137.789 1194.8 138.669C1194.8 141.704 1193.23 144.164 1191.3 144.164C1189.37 144.164 1187.8 141.704 1187.8 138.669C1187.8 138.011 1187.88 137.356 1188.03 136.717C1187.43 136.068 1187.06 135.239 1186.99 134.358C1186.91 133.478 1187.12 132.597 1187.6 131.853C1187.2 132.202 1186.74 132.467 1186.24 132.635C1185.74 132.802 1185.21 132.868 1184.68 132.829C1184.15 132.79 1183.64 132.647 1183.16 132.407C1182.69 132.168 1182.27 131.837 1181.93 131.434C1181.59 131.031 1181.33 130.564 1181.17 130.06C1181 129.556 1180.95 129.025 1180.99 128.497C1181.04 127.97 1181.19 127.457 1181.43 126.989C1181.68 126.52 1182.02 126.105 1182.42 125.767C1181.74 125.515 1181.14 125.079 1180.68 124.507C1180.23 123.936 1179.94 123.251 1179.84 122.526C1179.75 121.802 1179.86 121.066 1180.15 120.398C1180.45 119.731 1180.92 119.157 1181.52 118.739C1182.12 118.322 1182.82 118.076 1183.55 118.03C1184.28 117.983 1185.01 118.137 1185.66 118.475C1186.3 118.813 1186.85 119.322 1187.22 119.946C1187.6 120.571 1187.8 121.287 1187.8 122.018C1187.8 122.076 1187.8 122.134 1187.8 122.192C1188.35 122.024 1188.93 121.977 1189.49 122.053C1190.06 122.128 1190.61 122.325 1191.1 122.631C1191.58 122.936 1192 123.342 1192.31 123.822C1192.63 124.302 1192.83 124.843 1192.92 125.41C1193.42 125.114 1193.98 124.929 1194.55 124.87C1195.13 124.81 1195.71 124.877 1196.26 125.065C1196.81 125.253 1197.31 125.558 1197.73 125.96C1198.15 126.361 1198.47 126.848 1198.68 127.388C1198.9 127.928 1198.99 128.508 1198.95 129.087C1198.92 129.666 1198.76 130.23 1198.48 130.74C1198.21 131.251 1197.82 131.696 1197.36 132.043C1196.9 132.391 1196.36 132.633 1195.79 132.754H1195.79Z" fill="#E2E2E2"/>
<path d="M1199.63 139.789L1219.86 163.504V199.449H1183.5V158.993L1199.63 139.789Z" fill="#FF7A63"/>
<path d="M1197.84 179.571H1205.26V186.134H1197.84V179.571Z" fill="#3F3D56"/>
<path d="M1197.84 168.211H1205.26V174.67H1197.84V168.211Z" fill="#3F3D56"/>
<path d="M1197.84 179.571H1205.26V186.134H1197.84V179.571Z" fill="white"/>
<path d="M1197.84 168.211H1205.26V174.67H1197.84V168.211Z" fill="white"/>
<path d="M1290.53 128.11L1319.89 93.1344H1377.63L1412.92 127.503L1412.21 127.961H1412.46V199.449H1290.57V127.961L1290.53 128.11Z" fill="#3F3D56"/>
<path d="M1326.25 53.2142L1322.28 50.0444C1325.36 49.7047 1326.63 51.3838 1327.15 52.7129C1329.55 51.7141 1332.17 53.0231 1332.17 53.0231L1324.24 55.9018C1324.64 54.8333 1325.34 53.901 1326.25 53.2142Z" fill="#3F3D56"/>
<path d="M1255.13 61.6522L1251.17 58.4824C1254.25 58.1427 1255.51 59.8218 1256.03 61.1509C1258.44 60.1521 1261.06 61.4611 1261.06 61.4611L1253.13 64.3398C1253.53 63.2713 1254.22 62.339 1255.13 61.6522Z" fill="#3F3D56"/>
<path d="M1272.13 85.7982L1268.17 82.6284C1271.25 82.2887 1272.51 83.9678 1273.03 85.2969C1275.43 84.2981 1278.05 85.6071 1278.05 85.6071L1270.12 88.4858C1270.52 87.4173 1271.22 86.485 1272.13 85.7982Z" fill="#3F3D56"/>
<path d="M1308.19 89.8596H1314.85V112.904H1308.19V89.8596Z" fill="#3F3D56"/>
<path d="M1240.85 117.257H1247.51V140.301H1240.85V117.257Z" fill="#3F3D56"/>
<path d="M1240.85 114.953H1247.51V137.997H1240.85V114.953Z" fill="#3F3D56"/>
<path d="M1230.79 144.345L1253.52 117.355H1298.1L1325.35 143.894L1324.8 144.247H1325V199.449H1230.87V144.247L1230.79 144.345Z" fill="#3F3D56"/>
<path d="M1253.16 117.001L1281.12 149.774V199.449H1230.87V143.54L1253.16 117.001Z" fill="#FF7A63"/>
<path d="M1319.44 92.6761L1355.64 135.119V199.449H1290.57V127.045L1319.44 92.6761Z" fill="#FF7A63"/>
<path d="M1384.93 198.277C1384.93 198.277 1384.77 194.942 1381.51 195.33L1384.93 198.277Z" fill="#E6E6E6"/>
<path d="M1385.85 195.103C1384.95 195.103 1384.22 194.372 1384.22 193.47C1384.22 192.568 1384.95 191.837 1385.85 191.837C1386.75 191.837 1387.49 192.568 1387.49 193.47C1387.49 194.372 1386.75 195.103 1385.85 195.103Z" fill="#FF7A63"/>
<path d="M1385.66 196.22H1386.12V199.448H1385.66V196.22Z" fill="#E6E6E6"/>
<path d="M1370.34 198.277C1370.34 198.277 1370.18 194.942 1366.91 195.33L1370.34 198.277Z" fill="#E6E6E6"/>
<path d="M1371.26 195.103C1370.36 195.103 1369.62 194.372 1369.62 193.47C1369.62 192.568 1370.36 191.837 1371.26 191.837C1372.16 191.837 1372.89 192.568 1372.89 193.47C1372.89 194.372 1372.16 195.103 1371.26 195.103Z" fill="#FF7A63"/>
<path d="M1371.06 196.22H1371.52V199.448H1371.06V196.22Z" fill="#E6E6E6"/>
<path d="M1286.61 198.277C1286.61 198.277 1286.45 194.942 1283.19 195.33L1286.61 198.277Z" fill="#E6E6E6"/>
<path d="M1287.53 195.103C1286.63 195.103 1285.9 194.372 1285.9 193.47C1285.9 192.568 1286.63 191.837 1287.53 191.837C1288.43 191.837 1289.16 192.568 1289.16 193.47C1289.16 194.372 1288.43 195.103 1287.53 195.103Z" fill="#FF7A63"/>
<path d="M1287.33 196.22H1287.8V199.448H1287.33V196.22Z" fill="#E6E6E6"/>
<path d="M1224.9 198.277C1224.9 198.277 1224.74 194.942 1221.48 195.33L1224.9 198.277Z" fill="#E6E6E6"/>
<path d="M1225.82 195.103C1224.92 195.103 1224.19 194.372 1224.19 193.47C1224.19 192.568 1224.92 191.837 1225.82 191.837C1226.72 191.837 1227.46 192.568 1227.46 193.47C1227.46 194.372 1226.72 195.103 1225.82 195.103Z" fill="#FF7A63"/>
<path d="M1225.63 196.22H1226.09V199.448H1225.63V196.22Z" fill="#E6E6E6"/>
<path d="M1404.9 198.277C1404.9 198.277 1404.74 194.942 1401.48 195.33L1404.9 198.277Z" fill="#E6E6E6"/>
<path d="M1405.82 195.103C1404.92 195.103 1404.19 194.372 1404.19 193.47C1404.19 192.568 1404.92 191.837 1405.82 191.837C1406.73 191.837 1407.46 192.568 1407.46 193.47C1407.46 194.372 1406.73 195.103 1405.82 195.103Z" fill="#FF7A63"/>
<path d="M1405.63 196.22H1406.09V199.448H1405.63V196.22Z" fill="#E6E6E6"/>
<path d="M1248.91 105.397C1248.91 105.43 1248.92 105.463 1248.92 105.497C1248.92 106.109 1248.79 106.715 1248.56 107.279C1248.32 107.843 1247.97 108.353 1247.53 108.779C1247.46 108.925 1247.38 109.068 1247.3 109.207C1247.62 110.163 1247.78 111.165 1247.77 112.173C1247.77 115.65 1245.98 118.468 1243.77 118.468C1241.55 118.468 1239.76 115.65 1239.76 112.173C1239.76 111.42 1239.85 110.669 1240.02 109.937C1239.33 109.194 1238.91 108.244 1238.82 107.235C1238.73 106.227 1238.98 105.218 1239.53 104.366C1239.07 104.764 1238.54 105.069 1237.97 105.261C1237.39 105.452 1236.78 105.528 1236.18 105.484C1235.57 105.439 1234.98 105.275 1234.44 105C1233.9 104.726 1233.42 104.347 1233.03 103.885C1232.64 103.423 1232.34 102.888 1232.16 102.311C1231.97 101.733 1231.9 101.125 1231.96 100.521C1232.01 99.917 1232.18 99.3296 1232.46 98.7927C1232.74 98.2559 1233.13 97.7803 1233.6 97.3936C1232.81 97.1039 1232.12 96.6047 1231.6 95.9501C1231.08 95.2956 1230.75 94.5107 1230.64 93.6808C1230.53 92.8509 1230.66 92.0077 1231 91.2428C1231.33 90.4778 1231.88 89.8205 1232.56 89.3421C1233.25 88.8636 1234.05 88.5825 1234.89 88.5291C1235.72 88.4757 1236.56 88.6522 1237.3 89.0393C1238.04 89.4264 1238.66 90.0094 1239.1 90.7249C1239.53 91.4405 1239.76 92.2611 1239.76 93.0979C1239.76 93.1649 1239.76 93.2314 1239.75 93.2977C1240.38 93.1057 1241.05 93.0512 1241.7 93.1379C1242.35 93.2246 1242.97 93.4505 1243.53 93.8002C1244.09 94.15 1244.56 94.6154 1244.92 95.1648C1245.28 95.7142 1245.52 96.3349 1245.62 96.9845C1246.19 96.6448 1246.83 96.4335 1247.49 96.3651C1248.15 96.2967 1248.82 96.373 1249.45 96.5886C1250.08 96.8042 1250.65 97.154 1251.13 97.6136C1251.61 98.0733 1251.98 98.6319 1252.22 99.2505C1252.47 99.8692 1252.57 100.533 1252.53 101.196C1252.49 101.859 1252.31 102.506 1251.99 103.091C1251.68 103.675 1251.24 104.185 1250.71 104.583C1250.17 104.981 1249.56 105.259 1248.91 105.397V105.397Z" fill="#E2E2E2"/>
<path d="M1388.21 123.778L1393.94 131.709L1394.5 115.979L1395.18 139.203L1400.46 131.894L1395.23 140.808L1396.96 199.532H1391.55L1393.88 133.434L1388.21 123.778Z" fill="#E2E2E2"/>
<path d="M1413.94 100.278L1421.45 110.669L1422.18 90.0605L1423.08 120.488L1430 110.912L1423.14 122.591L1425.41 199.532H1418.32L1421.37 112.93L1413.94 100.278Z" fill="#3F3D56"/>
<path d="M1204.69 52.8497C1206.08 52.8508 1207.46 52.9826 1208.83 53.2432C1203.8 54.2047 1199.26 56.8898 1196 60.8361C1192.73 64.7824 1190.95 69.743 1190.95 74.8637C1190.95 79.9845 1192.73 84.9451 1196 88.8914C1199.26 92.8377 1203.8 95.5227 1208.83 96.4843C1205.82 97.0604 1202.72 97.001 1199.73 96.31C1196.74 95.6191 1193.93 94.3117 1191.48 92.4717C1189.03 90.6318 1186.99 88.2998 1185.49 85.6251C1183.99 82.9505 1183.06 79.9923 1182.78 76.94C1182.49 73.8876 1182.84 70.8085 1183.81 67.8999C1184.78 64.9914 1186.34 62.3174 1188.41 60.0495C1190.47 57.7816 1192.98 55.9697 1195.79 54.7298C1198.59 53.49 1201.63 52.8496 1204.69 52.8497Z" fill="#E2E2E2"/>
<path d="M1317.4 77.224C1317.41 77.2631 1317.41 77.3018 1317.41 77.341C1317.41 78.0596 1317.26 78.771 1316.98 79.4328C1316.7 80.0947 1316.29 80.6935 1315.78 81.1935C1315.7 81.3654 1315.61 81.5329 1315.51 81.6954C1315.88 82.8181 1316.07 83.9943 1316.06 85.1774C1316.06 89.2581 1313.96 92.5661 1311.36 92.5661C1308.77 92.5661 1306.66 89.2581 1306.66 85.1774C1306.66 84.2935 1306.76 83.4125 1306.97 82.5528C1306.16 81.6803 1305.67 80.565 1305.56 79.3816C1305.46 78.1982 1305.75 77.0135 1306.39 76.0131C1305.85 76.4811 1305.23 76.8381 1304.55 77.0632C1303.88 77.2884 1303.17 77.3773 1302.46 77.3247C1301.75 77.2722 1301.06 77.0793 1300.42 76.7572C1299.79 76.4351 1299.22 75.9902 1298.76 75.4483C1298.3 74.9065 1297.95 74.2785 1297.74 73.6007C1297.52 72.923 1297.44 72.2091 1297.5 71.5003C1297.56 70.7915 1297.77 70.1021 1298.1 69.472C1298.43 68.8419 1298.88 68.2837 1299.43 67.8297C1298.5 67.4897 1297.69 66.9037 1297.08 66.1354C1296.47 65.3671 1296.08 64.4459 1295.96 63.4718C1295.83 62.4976 1295.98 61.5079 1296.37 60.6101C1296.77 59.7122 1297.41 58.9407 1298.21 58.3791C1299.02 57.8176 1299.96 57.4875 1300.94 57.4249C1301.92 57.3622 1302.9 57.5694 1303.77 58.0238C1304.64 58.4781 1305.37 59.1624 1305.88 60.0023C1306.39 60.8421 1306.66 61.8054 1306.66 62.7875C1306.66 62.8662 1306.66 62.9443 1306.65 63.0221C1307.39 62.7967 1308.17 62.7327 1308.93 62.8345C1309.7 62.9363 1310.43 63.2014 1311.09 63.612C1311.74 64.0225 1312.3 64.5687 1312.72 65.2136C1313.14 65.8586 1313.42 66.587 1313.54 67.3496C1314.21 66.9509 1314.96 66.7028 1315.74 66.6225C1316.51 66.5423 1317.29 66.6318 1318.03 66.8848C1318.77 67.1379 1319.44 67.5485 1320.01 68.088C1320.57 68.6275 1321.01 69.2832 1321.29 70.0093C1321.58 70.7355 1321.7 71.5148 1321.65 72.2931C1321.6 73.0714 1321.39 73.8302 1321.02 74.5167C1320.65 75.2031 1320.13 75.8009 1319.51 76.2684C1318.89 76.7359 1318.17 77.062 1317.4 77.224Z" fill="#E2E2E2"/>
<path d="M1333.98 143.542H1347.27V157.13H1333.98V143.542Z" fill="#3F3D56"/>
<path d="M1333.98 162.031H1347.27V175.62H1333.98V162.031Z" fill="#3F3D56"/>
<path d="M1333.98 143.542H1347.27V157.13H1333.98V143.542Z" fill="white"/>
<path d="M1333.98 162.031H1347.27V175.62H1333.98V162.031Z" fill="white"/>
<path d="M1315.6 143.542H1328.89V157.13H1315.6V143.542Z" fill="#3F3D56"/>
<path d="M1315.6 162.031H1328.89V175.62H1315.6V162.031Z" fill="#3F3D56"/>
<path d="M1315.6 143.542H1328.89V157.13H1315.6V143.542Z" fill="white"/>
<path d="M1315.6 162.031H1328.89V175.62H1315.6V162.031Z" fill="white"/>
<path d="M1297.22 143.542H1310.51V157.13H1297.22V143.542Z" fill="#3F3D56"/>
<path d="M1297.22 162.031H1310.51V175.62H1297.22V162.031Z" fill="#3F3D56"/>
<path d="M1297.22 143.542H1310.51V157.13H1297.22V143.542Z" fill="white"/>
<path d="M1297.22 162.031H1310.51V175.62H1297.22V162.031Z" fill="white"/>
<path d="M1257.77 171.114H1268.03V181.048H1257.77V171.114Z" fill="#3F3D56"/>
<path d="M1257.77 156.279H1268.03V166.213H1257.77V156.279Z" fill="#3F3D56"/>
<path d="M1257.77 171.114H1268.03V181.048H1257.77V171.114Z" fill="white"/>
<path d="M1257.77 156.279H1268.03V166.213H1257.77V156.279Z" fill="white"/>
<path d="M1242.76 171.114H1253.02V181.048H1242.76V171.114Z" fill="#3F3D56"/>
<path d="M1242.76 156.279H1253.02V166.213H1242.76V156.279Z" fill="#3F3D56"/>
<path d="M1242.76 171.114H1253.02V181.048H1242.76V171.114Z" fill="white"/>
<path d="M1242.76 156.279H1253.02V166.213H1242.76V156.279Z" fill="white"/>
<defs>
<clipPath id="clip0">
<rect width="220.11" height="250" fill="white" transform="matrix(-1 0 0 1 830 73)"/>
</clipPath>
<clipPath id="clip1">
<rect width="278.719" height="150" fill="white" transform="matrix(-1 0 0 1 279 50)"/>
</clipPath>
</defs>
</svg>
