<svg width="32" height="32" viewBox="0 0 32 32" fill="none" xmlns="http://www.w3.org/2000/svg">
<path d="M16 12.6933C15.346 12.6933 14.7067 12.8872 14.1629 13.2506C13.6192 13.6139 13.1953 14.1303 12.9451 14.7346C12.6948 15.3388 12.6293 16.0036 12.7569 16.6451C12.8845 17.2865 13.1994 17.8757 13.6619 18.3381C14.1243 18.8006 14.7135 19.1155 15.3549 19.2431C15.9964 19.3707 16.6612 19.3052 17.2654 19.0549C17.8696 18.8046 18.3861 18.3808 18.7494 17.837C19.1128 17.2933 19.3067 16.654 19.3067 16C19.3067 15.5657 19.2212 15.1357 19.055 14.7346C18.8888 14.3334 18.6452 13.9688 18.3382 13.6618C18.0311 13.3547 17.6666 13.1112 17.2654 12.945C16.8642 12.7788 16.4343 12.6933 16 12.6933ZM29.24 9.42663C29.233 8.39697 29.0434 7.37672 28.68 6.41329C28.4124 5.70831 27.9983 5.06808 27.4651 4.53487C26.9319 4.00166 26.2917 3.58758 25.5867 3.31996C24.6233 2.95658 23.603 2.76697 22.5734 2.75996C20.8534 2.66663 20.3467 2.66663 16 2.66663C11.6534 2.66663 11.1467 2.66663 9.42669 2.75996C8.39703 2.76697 7.37678 2.95658 6.41335 3.31996C5.70837 3.58758 5.06815 4.00166 4.53493 4.53487C4.00172 5.06808 3.58764 5.70831 3.32002 6.41329C2.95664 7.37672 2.76703 8.39697 2.76002 9.42663C2.66669 11.1466 2.66669 11.6533 2.66669 16C2.66669 20.3466 2.66669 20.8533 2.76002 22.5733C2.77437 23.6066 2.96372 24.6299 3.32002 25.6C3.58646 26.3017 4.00019 26.9382 4.53335 27.4666C5.06428 28.003 5.70587 28.4171 6.41335 28.68C7.37678 29.0433 8.39703 29.2329 9.42669 29.24C11.1467 29.3333 11.6534 29.3333 16 29.3333C20.3467 29.3333 20.8534 29.3333 22.5734 29.24C23.603 29.2329 24.6233 29.0433 25.5867 28.68C26.2942 28.4171 26.9358 28.003 27.4667 27.4666C27.9998 26.9382 28.4136 26.3017 28.68 25.6C29.0431 24.6318 29.2326 23.6072 29.24 22.5733C29.3334 20.8533 29.3334 20.3466 29.3334 16C29.3334 11.6533 29.3334 11.1466 29.24 9.42663ZM25.8534 20.0933C25.8106 20.9161 25.635 21.7266 25.3334 22.4933C25.0745 23.1329 24.6897 23.7139 24.2018 24.2018C23.7139 24.6896 23.1329 25.0744 22.4934 25.3333C21.7194 25.6181 20.9044 25.7757 20.08 25.8H11.92C11.0957 25.7757 10.2807 25.6181 9.50669 25.3333C8.84549 25.0876 8.24839 24.6956 7.76002 24.1866C7.27691 23.7083 6.90381 23.1305 6.66669 22.4933C6.38076 21.7201 6.2275 20.9042 6.21335 20.08V16V11.92C6.2275 11.0957 6.38076 10.2798 6.66669 9.50663C6.9124 8.84543 7.30439 8.24833 7.81335 7.75996C8.2938 7.27946 8.87104 6.90675 9.50669 6.66663C10.2807 6.38183 11.0957 6.22424 11.92 6.19996H20.08C20.9044 6.22424 21.7194 6.38183 22.4934 6.66663C23.1546 6.91233 23.7517 7.30433 24.24 7.81329C24.7231 8.29162 25.0962 8.86947 25.3334 9.50663C25.6181 10.2806 25.7757 11.0956 25.8 11.92V16C25.8 18.7466 25.8934 19.0266 25.8534 20.08V20.0933ZM23.72 10.1733C23.5613 9.74261 23.311 9.35148 22.9864 9.02691C22.6618 8.70234 22.2707 8.45204 21.84 8.29329C21.2486 8.08831 20.6258 7.98901 20 7.99996H12C11.371 8.00611 10.7481 8.12347 10.16 8.34663C9.73593 8.49817 9.34894 8.73824 9.0248 9.05089C8.70065 9.36354 8.44677 9.74161 8.28002 10.16C8.08639 10.7538 7.99179 11.3754 8.00002 12V20C8.01324 20.6282 8.13038 21.25 8.34669 21.84C8.50544 22.2706 8.75573 22.6618 9.08031 22.9863C9.40488 23.3109 9.796 23.5612 10.2267 23.72C10.7956 23.9292 11.3942 24.0462 12 24.0666H20C20.629 24.0605 21.2519 23.9431 21.84 23.72C22.2707 23.5612 22.6618 23.3109 22.9864 22.9863C23.311 22.6618 23.5613 22.2706 23.72 21.84C23.9432 21.2519 24.0605 20.6289 24.0667 20V16V12C24.0671 11.3704 23.9495 10.7463 23.72 10.16V10.1733ZM16 21.0933C15.3318 21.0933 14.6701 20.9615 14.0529 20.7053C13.4357 20.4492 12.8751 20.0738 12.4032 19.6007C11.9313 19.1276 11.5574 18.566 11.3029 17.9481C11.0484 17.3302 10.9183 16.6682 10.92 16C10.92 14.992 11.2191 14.0068 11.7793 13.1689C12.3396 12.331 13.1358 11.6782 14.0673 11.2931C14.9988 10.908 16.0236 10.8079 17.0119 11.0055C18.0003 11.2031 18.9078 11.6895 19.6196 12.4032C20.3314 13.1168 20.8154 14.0256 21.0104 15.0145C21.2055 16.0034 21.1027 17.0279 20.7151 17.9584C20.3276 18.8888 19.6727 19.6833 18.8333 20.2414C17.994 20.7995 17.008 21.0959 16 21.0933ZM21.3334 11.9066C21.0386 11.8754 20.7658 11.7363 20.5676 11.5159C20.3694 11.2956 20.2597 11.0097 20.2597 10.7133C20.2597 10.4169 20.3694 10.131 20.5676 9.91067C20.7658 9.69033 21.0386 9.55116 21.3334 9.51996C21.6281 9.55116 21.9009 9.69033 22.0991 9.91067C22.2974 10.131 22.407 10.4169 22.407 10.7133C22.407 11.0097 22.2974 11.2956 22.0991 11.5159C21.9009 11.7363 21.6281 11.8754 21.3334 11.9066Z" fill="#192615"/>
</svg>
