<svg width="109" height="98" viewBox="0 0 109 98" fill="none" xmlns="http://www.w3.org/2000/svg">
<path d="M54.5 87.8817H64.4091V23.4489L96.0885 37.0293C96.9803 37.4118 97.7402 38.0478 98.274 38.8584C98.8077 39.669 99.0918 40.6185 99.0909 41.5892V87.8817H109V97.7944H0V87.8817H9.90909V21.7142C9.90897 20.7552 10.1869 19.8168 10.7093 19.0127C11.2317 18.2086 11.976 17.5734 12.8521 17.184L51.017 0.213441C51.3945 0.0456377 51.8081 -0.025033 52.2199 0.00786226C52.6317 0.0407575 53.0288 0.176174 53.375 0.401785C53.7212 0.627396 54.0054 0.936037 54.2019 1.29961C54.3984 1.66319 54.5009 2.07015 54.5 2.48346V87.8817Z" fill="#192615"/>
<path d="M19.3551 29.542L30.5607 23.9392V48.8972H19.3551V29.542Z" fill="white"/>
<path d="M74 66L94 73.5V80H74V66Z" fill="white"/>
</svg>
