<svg width="442" height="81" viewBox="0 0 442 81" fill="none" xmlns="http://www.w3.org/2000/svg">
<path d="M44.7969 72.2353H52.9418V19.2741L78.981 30.4367C79.714 30.751 80.3386 31.2738 80.7774 31.9401C81.2161 32.6064 81.4496 33.3868 81.4489 34.1847V72.2353H89.5937V80.3832H0V72.2353H8.14489V17.8482C8.14479 17.06 8.37327 16.2886 8.80264 15.6277C9.23202 14.9668 9.84383 14.4446 10.5639 14.1246L41.9339 0.175441C42.2443 0.0375124 42.5842 -0.0205762 42.9227 0.00646247C43.2612 0.0335011 43.5876 0.144808 43.8722 0.330252C44.1567 0.515695 44.3904 0.769386 44.5519 1.06823C44.7134 1.36708 44.7976 1.70158 44.7969 2.04131V72.2353Z" fill="#192615"/>
<path d="M15.9092 24.2824L25.1198 19.6771V40.1916H15.9092V24.2824Z" fill="white"/>
<path d="M60.8251 54.2494L77.2643 60.4141V65.7568H60.8251V54.2494Z" fill="white"/>
<path d="M103.825 79.4264C103.679 79.3774 103.422 78.9235 103.057 78.0649C102.715 77.2063 102.386 76.1391 102.069 74.8635C101.752 73.5878 101.594 72.4594 101.594 71.4781C101.594 71.2328 101.655 70.9874 101.777 70.7421C104.02 67.7247 105.385 65.9093 105.873 65.296L132.938 32.4355C133.572 31.6995 133.889 31.2211 133.889 31.0004C133.889 31.0985 126.501 31.1475 111.725 31.1475C111.579 31.5646 111.274 32.7176 110.811 34.6065C110.372 36.4955 109.933 38.1514 109.494 39.5743C109.055 40.9726 108.689 41.6718 108.397 41.6718C107.08 41.6718 105.702 41.4019 104.264 40.8622C102.825 40.298 102.106 39.7337 102.106 39.1695C102.106 38.9487 102.118 38.8383 102.142 38.8383C102.459 36.7286 102.996 34.214 103.752 31.2947C104.508 28.3754 105.3 25.8486 106.129 23.7144C112.371 24.0823 120.174 24.2663 129.537 24.2663C132.853 24.2663 137.352 24.0823 143.033 23.7144C143.423 24.4258 143.667 25.1863 143.765 25.9958C143.886 26.8054 143.947 28.3632 143.947 30.6692C143.947 30.89 143.862 31.2089 143.691 31.6259C143.521 32.0184 143.253 32.5091 142.887 33.0978C142.521 33.6621 142.155 34.214 141.79 34.7537C141.448 35.2689 140.997 35.9067 140.436 36.6672C139.9 37.4032 139.449 38.0165 139.083 38.5071C138.717 38.9732 138.242 39.5865 137.657 40.347C137.096 41.083 136.718 41.5859 136.523 41.8557C133.548 45.6337 125.221 55.7654 111.542 72.2508C112.371 72.0791 120.381 71.9932 135.572 71.9932C135.645 71.7725 135.986 70.4845 136.596 68.1295C137.205 65.7499 137.73 63.8854 138.169 62.5362C138.632 61.1869 138.998 60.5123 139.266 60.5123C140.656 60.5123 142.204 60.7576 143.911 61.2483C145.618 61.7389 146.471 62.3522 146.471 63.0881C146.398 64.2412 145.715 66.9519 144.423 71.2205C143.131 75.4891 142.18 78.2244 141.57 79.4264C136.742 79.1566 130.366 79.0217 122.441 79.0217C114.419 79.0217 108.214 79.1566 103.825 79.4264Z" fill="#192615"/>
<path d="M152.213 23.7144C156.261 24.0333 159.175 24.1927 160.955 24.1927C162.857 24.1927 165.868 24.0333 169.989 23.7144C170.525 24.1069 170.915 24.9042 171.159 26.1062C171.427 27.2838 171.561 28.5104 171.561 29.786C171.561 30.3748 171.159 30.8164 170.355 31.1107C169.55 31.4051 168.587 31.5523 167.465 31.5523C166.929 31.5523 166.49 31.6259 166.148 31.7731C165.807 31.8958 165.563 32.092 165.417 32.3619C165.295 32.6317 165.21 32.877 165.161 33.0978C165.136 33.2941 165.124 33.5762 165.124 33.9442V69.2702C165.124 69.6382 165.136 69.9326 165.161 70.1534C165.21 70.3496 165.295 70.5827 165.417 70.8525C165.563 71.1224 165.807 71.3309 166.148 71.4781C166.49 71.6007 166.929 71.6621 167.465 71.6621C168.587 71.6621 169.55 71.8093 170.355 72.1036C171.159 72.398 171.561 72.8396 171.561 73.4284C171.561 74.704 171.427 75.9306 171.159 77.1082C170.915 78.2612 170.525 79.0339 169.989 79.4264C166.502 79.1566 163.491 79.0217 160.955 79.0217C158.565 79.0217 155.651 79.1566 152.213 79.4264C151.555 79.0339 151.067 78.2489 150.75 77.0714C150.433 75.8938 150.275 74.6795 150.275 73.4284C150.275 72.8396 150.677 72.398 151.482 72.1036C152.287 71.8093 153.25 71.6621 154.371 71.6621C155.322 71.6621 155.944 71.4658 156.237 71.0733C156.529 70.6563 156.676 70.0798 156.676 69.3438V33.797C156.676 33.061 156.529 32.4968 156.237 32.1043C155.944 31.6872 155.322 31.4787 154.371 31.4787C151.64 31.4787 150.275 30.8409 150.275 29.5652C150.275 28.3632 150.433 27.1856 150.75 26.0326C151.067 24.8551 151.555 24.0823 152.213 23.7144Z" fill="#192615"/>
<path d="M190.8 72.6556H204.991C207.063 72.6556 208.99 72.2631 210.77 71.4781C212.574 70.6931 214.122 69.6382 215.415 68.3135C216.707 66.9642 217.804 65.3942 218.706 63.6033C219.633 61.8125 220.316 59.9113 220.755 57.8996C221.218 55.8635 221.45 53.7905 221.45 51.6808C221.45 49.0068 221.059 46.4187 220.279 43.9164C219.523 41.4142 218.426 39.145 216.987 37.1088C215.573 35.0727 213.72 33.4413 211.428 32.2147C209.16 30.9881 206.649 30.3748 203.894 30.3748H190.8V72.6556ZM177.889 23.7144C181.108 24.0333 185.594 24.1927 191.348 24.1927C193.202 24.1927 195.53 24.1191 198.334 23.9719C201.163 23.8002 203.016 23.7144 203.894 23.7144C207.527 23.7144 210.855 24.2418 213.879 25.2967C216.902 26.327 219.45 27.7376 221.523 29.5284C223.595 31.3193 225.351 33.4045 226.79 35.7841C228.253 38.1637 229.313 40.6782 229.972 43.3277C230.63 45.9771 230.959 48.7124 230.959 51.5336C230.959 54.4038 230.63 57.1759 229.972 59.8499C229.338 62.4994 228.326 65.0262 226.936 67.4303C225.57 69.8099 223.888 71.8829 221.888 73.6492C219.889 75.4155 217.439 76.826 214.537 77.8809C211.635 78.9113 208.453 79.4264 204.991 79.4264C203.967 79.4264 202.041 79.3528 199.212 79.2056C196.408 79.083 193.921 79.0217 191.751 79.0217C190.727 79.0217 189.483 79.0462 188.02 79.0953C186.557 79.1443 184.814 79.2056 182.79 79.2792C180.766 79.3528 179.132 79.4019 177.889 79.4264C177.231 79.0339 176.743 78.2489 176.426 77.0714C176.109 75.8938 175.95 74.6795 175.95 73.4284C175.95 72.8396 176.353 72.398 177.157 72.1036C177.962 71.8093 178.925 71.6621 180.047 71.6621C180.998 71.6621 181.62 71.4658 181.912 71.0733C182.205 70.6563 182.351 70.0798 182.351 69.3438V33.797C182.351 33.061 182.205 32.4968 181.912 32.1043C181.62 31.6872 180.998 31.4787 180.047 31.4787C177.316 31.4787 175.95 30.8409 175.95 29.5652C175.95 28.3632 176.109 27.1856 176.426 26.0326C176.743 24.8551 177.231 24.0823 177.889 23.7144Z" fill="#192615"/>
<path d="M237.213 23.7144C246.967 24.0333 253.526 24.1927 256.891 24.1927C259.207 24.1927 261.609 24.1682 264.096 24.1191C266.583 24.0455 268.924 23.9597 271.118 23.8616C273.313 23.7634 274.642 23.7144 275.105 23.7144C275.519 24.0823 276.275 26.5846 277.373 31.2211C278.494 35.8577 279.055 38.6298 279.055 39.5375C279.055 39.7092 278.957 39.9545 278.762 40.2734C278.592 40.5678 278.311 40.899 277.921 41.267C277.555 41.6104 277.007 41.9048 276.275 42.1501C275.568 42.3954 274.751 42.5181 273.825 42.5181C273.459 42.5181 273.045 41.7331 272.581 40.163C272.118 38.593 271.655 36.7776 271.191 34.7169C270.728 32.6317 270.399 31.3193 270.204 30.7796C268.424 30.7796 265.449 30.7918 261.28 30.8164C257.134 30.8164 253.831 30.8164 251.368 30.8164C251.002 30.8164 250.722 30.9513 250.527 31.2211C250.332 31.491 250.21 31.7731 250.161 32.0675C250.136 32.3373 250.124 32.7053 250.124 33.1714V47.0443C251.539 46.5536 253.282 46.112 255.355 45.7195C257.451 45.327 259.366 45.1308 261.097 45.1308C262.56 45.1308 263.73 45.511 264.608 46.2715C265.486 47.0075 265.925 48.1973 265.925 49.8409C265.925 51.2147 265.449 52.3677 264.498 53.2999C263.572 54.2076 262.474 54.6614 261.206 54.6614C259.451 52.429 256.939 51.3128 253.672 51.3128C252.721 51.3128 251.539 51.3987 250.124 51.5704V70.043C250.124 70.5336 250.136 70.9261 250.161 71.2205C250.21 71.4903 250.332 71.7602 250.527 72.03C250.722 72.2999 251.002 72.4348 251.368 72.4348C254.026 72.4348 257.598 72.4471 262.084 72.4716C266.571 72.4716 269.765 72.4716 271.667 72.4716C271.911 71.8829 272.337 70.4232 272.947 68.0927C273.557 65.7376 274.166 63.6769 274.776 61.9106C275.385 60.1443 275.922 59.2612 276.385 59.2612C277.312 59.2612 278.128 59.3838 278.836 59.6291C279.567 59.8745 280.116 60.1811 280.481 60.5491C280.872 60.8925 281.152 61.2237 281.323 61.5426C281.518 61.837 281.615 62.0701 281.615 62.2418C281.615 63.2476 280.945 66.2773 279.604 71.3309C278.287 76.3599 277.397 79.0585 276.934 79.4264C272.423 79.1566 265.742 79.0217 256.891 79.0217C249.161 79.0217 242.602 79.1566 237.213 79.4264C236.555 79.0339 236.067 78.2489 235.75 77.0714C235.433 75.8938 235.275 74.6795 235.275 73.4284C235.275 72.8396 235.677 72.398 236.482 72.1036C237.287 71.8093 238.25 71.6621 239.371 71.6621C240.322 71.6621 240.944 71.4658 241.237 71.0733C241.529 70.6563 241.676 70.0798 241.676 69.3438V33.797C241.676 33.061 241.529 32.4968 241.237 32.1043C240.944 31.6872 240.322 31.4787 239.371 31.4787C236.64 31.4787 235.275 30.8409 235.275 29.5652C235.275 28.3632 235.433 27.1856 235.75 26.0326C236.067 24.8551 236.555 24.0823 237.213 23.7144Z" fill="#192615"/>
<path d="M285.968 23.7144C286.382 23.7389 287.053 23.8002 287.979 23.8983C288.93 23.9965 289.796 24.0701 290.576 24.1191C291.356 24.1682 292.234 24.1927 293.209 24.1927C293.99 24.1927 294.953 24.1559 296.099 24.0823C297.245 23.9842 297.94 23.9351 298.184 23.9351C298.257 23.9351 298.342 23.9474 298.44 23.9719C298.537 23.9719 298.598 23.9719 298.623 23.9719C299.037 23.9965 300.585 25.7382 303.268 29.1973C305.95 32.6563 309.193 37.0352 312.997 42.3341C316.825 47.633 319.787 51.7667 321.884 54.735C323.981 57.7034 325.871 60.3774 327.553 62.757V33.9074C327.553 33.1714 327.407 32.6072 327.114 32.2147C326.822 31.7976 326.2 31.5891 325.249 31.5891C324.127 31.5891 323.164 31.4419 322.36 31.1475C321.555 30.8532 321.153 30.4116 321.153 29.8228C321.153 28.5717 321.275 27.3819 321.518 26.2534C321.787 25.1004 322.189 24.3277 322.725 23.9351C324.92 24.1069 327.834 24.1927 331.467 24.1927C335.124 24.1927 338.014 24.1069 340.135 23.9351C340.671 24.3277 341.062 25.1004 341.305 26.2534C341.574 27.3819 341.708 28.5717 341.708 29.8228C341.708 30.4116 341.305 30.8532 340.501 31.1475C339.696 31.4419 338.733 31.5891 337.611 31.5891C337.075 31.5891 336.636 31.6627 336.295 31.8099C335.953 31.9326 335.709 32.1288 335.563 32.3987C335.441 32.6685 335.356 32.9138 335.307 33.1346C335.283 33.3309 335.271 33.613 335.271 33.981V63.7873C335.271 65.48 335.344 68.1908 335.49 71.9197C335.661 75.624 335.746 77.8196 335.746 78.5065C334.503 79.7576 333.186 80.3832 331.796 80.3832C331.503 80.3832 331.223 80.3341 330.955 80.236C330.711 80.1379 330.479 79.9661 330.26 79.7208C330.04 79.5 329.858 79.3038 329.711 79.132C329.589 78.9849 329.406 78.7273 329.163 78.3593C328.919 77.9668 328.736 77.6847 328.614 77.5129C326.395 74.3728 320.763 66.4981 311.716 53.8887C302.67 41.2547 298.147 34.9623 298.147 35.0113V69.2702C298.147 69.6382 298.159 69.9326 298.184 70.1534C298.232 70.3496 298.318 70.5827 298.44 70.8525C298.586 71.1224 298.83 71.3309 299.171 71.4781C299.513 71.6007 299.951 71.6621 300.488 71.6621C301.61 71.6621 302.573 71.8093 303.377 72.1036C304.182 72.398 304.584 72.8396 304.584 73.4284C304.584 74.6795 304.45 75.8938 304.182 77.0714C303.938 78.2489 303.548 79.0339 303.012 79.4264C299.695 79.1566 296.806 79.0217 294.343 79.0217C292.027 79.0217 289.235 79.1566 285.968 79.4264C285.309 79.0339 284.822 78.2489 284.505 77.0714C284.188 75.8938 284.029 74.6795 284.029 73.4284C284.029 72.8396 284.432 72.398 285.236 72.1036C286.041 71.8093 287.004 71.6621 288.126 71.6621C289.077 71.6621 289.698 71.4658 289.991 71.0733C290.284 70.6563 290.43 70.0798 290.43 69.3438V33.797C290.43 33.061 290.284 32.4968 289.991 32.1043C289.698 31.6872 289.077 31.4787 288.126 31.4787C285.395 31.4787 284.029 30.8409 284.029 29.5652C284.029 28.3632 284.188 27.1856 284.505 26.0326C284.822 24.8551 285.309 24.0823 285.968 23.7144Z" fill="#192615"/>
<path d="M389.657 42.4445H386.622C386.402 42.4445 386.122 42.2237 385.78 41.7821C385.439 41.316 385.037 40.7273 384.574 40.0158C384.135 39.3044 383.623 38.5194 383.037 37.6608C382.452 36.7776 381.757 35.9067 380.953 35.0481C380.172 34.1895 379.331 33.4045 378.429 32.6931C377.551 31.9816 376.503 31.4051 375.284 30.9636C374.089 30.4974 372.845 30.2644 371.553 30.2644C369.285 30.2644 367.188 30.6814 365.262 31.5155C363.336 32.3251 361.702 33.429 360.361 34.8273C359.02 36.2011 357.862 37.8202 356.886 39.6847C355.935 41.5246 355.228 43.4749 354.765 45.5355C354.326 47.5962 354.107 49.706 354.107 51.8648C354.107 53.9255 354.375 55.9371 354.911 57.8996C355.472 59.8377 356.313 61.6776 357.435 63.4193C358.581 65.1611 359.946 66.6943 361.531 68.0191C363.141 69.3193 365.079 70.3619 367.347 71.1469C369.614 71.9074 372.077 72.2876 374.735 72.2876C380.416 72.2876 385.659 70.4845 390.462 66.8783C391.413 68.154 391.888 69.4051 391.888 70.6317C391.888 72.398 390.938 74.0294 389.036 75.5259C387.158 76.9978 384.842 78.114 382.086 78.8745C379.331 79.635 376.551 80.0152 373.747 80.0152C369.992 80.0152 366.53 79.4878 363.36 78.4329C360.215 77.378 357.545 75.9552 355.35 74.1643C353.156 72.3735 351.278 70.2883 349.718 67.9087C348.182 65.5045 347.048 62.9655 346.316 60.2915C345.609 57.6175 345.256 54.8577 345.256 52.012C345.256 48.1605 345.877 44.4929 347.121 41.0094C348.364 37.5259 350.083 34.4839 352.278 31.8835C354.472 29.2831 357.191 27.2224 360.434 25.7014C363.677 24.1559 367.176 23.3832 370.931 23.3832C373.321 23.3832 375.735 23.9229 378.173 25.0023C380.636 26.0572 382.623 27.6272 384.135 29.7124C384.135 26.0326 384.61 24.1927 385.561 24.1927H389.657C390.828 24.1927 391.413 25.4684 391.413 28.0197V37.8448C391.413 39.2431 391.34 40.2734 391.194 40.9358C391.072 41.5736 390.901 41.9784 390.682 42.1501C390.486 42.2973 390.145 42.3954 389.657 42.4445Z" fill="#192615"/>
<path d="M397.192 23.7144C406.945 24.0333 413.504 24.1927 416.869 24.1927C419.186 24.1927 421.587 24.1682 424.074 24.1191C426.561 24.0455 428.902 23.9597 431.097 23.8616C433.291 23.7634 434.62 23.7144 435.083 23.7144C435.498 24.0823 436.254 26.5846 437.351 31.2211C438.473 35.8577 439.034 38.6298 439.034 39.5375C439.034 39.7092 438.936 39.9545 438.741 40.2734C438.57 40.5678 438.29 40.899 437.9 41.267C437.534 41.6104 436.985 41.9048 436.254 42.1501C435.547 42.3954 434.73 42.5181 433.803 42.5181C433.438 42.5181 433.023 41.7331 432.56 40.163C432.096 38.593 431.633 36.7776 431.17 34.7169C430.707 32.6317 430.377 31.3193 430.182 30.7796C428.402 30.7796 425.428 30.7918 421.258 30.8164C417.113 30.8164 413.809 30.8164 411.346 30.8164C410.981 30.8164 410.7 30.9513 410.505 31.2211C410.31 31.491 410.188 31.7731 410.139 32.0675C410.115 32.3373 410.103 32.7053 410.103 33.1714V47.0443C411.517 46.5536 413.26 46.112 415.333 45.7195C417.43 45.327 419.344 45.1308 421.075 45.1308C422.538 45.1308 423.709 45.511 424.586 46.2715C425.464 47.0075 425.903 48.1973 425.903 49.8409C425.903 51.2147 425.428 52.3677 424.477 53.2999C423.55 54.2076 422.453 54.6614 421.185 54.6614C419.429 52.429 416.918 51.3128 413.651 51.3128C412.7 51.3128 411.517 51.3987 410.103 51.5704V70.043C410.103 70.5336 410.115 70.9261 410.139 71.2205C410.188 71.4903 410.31 71.7602 410.505 72.03C410.7 72.2999 410.981 72.4348 411.346 72.4348C414.004 72.4348 417.576 72.4471 422.063 72.4716C426.549 72.4716 429.743 72.4716 431.645 72.4716C431.889 71.8829 432.316 70.4232 432.926 68.0927C433.535 65.7376 434.145 63.6769 434.754 61.9106C435.364 60.1443 435.9 59.2612 436.364 59.2612C437.29 59.2612 438.107 59.3838 438.814 59.6291C439.546 59.8745 440.094 60.1811 440.46 60.5491C440.85 60.8925 441.13 61.2237 441.301 61.5426C441.496 61.837 441.594 62.0701 441.594 62.2418C441.594 63.2476 440.923 66.2773 439.582 71.3309C438.265 76.3599 437.375 79.0585 436.912 79.4264C432.401 79.1566 425.72 79.0217 416.869 79.0217C409.14 79.0217 402.581 79.1566 397.192 79.4264C396.534 79.0339 396.046 78.2489 395.729 77.0714C395.412 75.8938 395.253 74.6795 395.253 73.4284C395.253 72.8396 395.656 72.398 396.46 72.1036C397.265 71.8093 398.228 71.6621 399.35 71.6621C400.301 71.6621 400.922 71.4658 401.215 71.0733C401.508 70.6563 401.654 70.0798 401.654 69.3438V33.797C401.654 33.061 401.508 32.4968 401.215 32.1043C400.922 31.6872 400.301 31.4787 399.35 31.4787C396.619 31.4787 395.253 30.8409 395.253 29.5652C395.253 28.3632 395.412 27.1856 395.729 26.0326C396.046 24.8551 396.534 24.0823 397.192 23.7144Z" fill="#192615"/>
</svg>
