<svg width="32" height="32" viewBox="0 0 32 32" fill="none" xmlns="http://www.w3.org/2000/svg">
<path d="M30.304 7.13603C29.52 8.30403 28.528 9.34403 27.376 10.176C27.392 10.416 27.392 10.672 27.392 10.928C27.392 18.688 21.488 27.632 10.704 27.632C7.39198 27.632 4.30398 26.656 1.69598 24.992C2.15998 25.04 2.62398 25.072 3.10398 25.072C5.85598 25.072 8.38398 24.128 10.384 22.56C9.16053 22.5347 7.97554 22.1279 6.99451 21.3965C6.01347 20.665 5.2854 19.6454 4.91198 18.48C5.26398 18.544 5.63198 18.592 6.01598 18.592C6.54398 18.592 7.07198 18.512 7.55198 18.384C6.22495 18.1116 5.03243 17.3899 4.17553 16.3407C3.31863 15.2914 2.84976 13.9787 2.84798 12.624V12.56C3.64798 12.992 4.54398 13.264 5.50398 13.296C4.70047 12.757 4.04216 12.0284 3.58728 11.1744C3.1324 10.3205 2.89497 9.36758 2.89598 8.40003C2.89598 7.32803 3.18398 6.32003 3.69598 5.45603C6.59198 9.00803 10.912 11.344 15.792 11.584C15.696 11.152 15.632 10.704 15.632 10.24C15.6362 8.68546 16.2567 7.196 17.3575 6.09824C18.4583 5.00049 19.9494 4.38403 21.504 4.38403C23.2 4.38403 24.72 5.08803 25.792 6.24003C27.12 5.96803 28.384 5.48803 29.52 4.81603C29.072 6.17603 28.144 7.32803 26.928 8.04803C28.0937 7.92061 29.2326 7.61295 30.304 7.13603Z" fill="#192615"/>
</svg>
